#N canvas 264 265 450 300 12;
#X obj 166 80 osc~ 440;
#X floatatom 166 41 5 0 500 0 freq - - 0;
#X obj 166 124 *~ 0.1;
#X obj 224 241 dac~;
#N canvas 69 312 450 300 child 0;
#X obj 160 55 inlet;
#X obj 160 116 osc~ 220;
#X obj 158 207 outlet~;
#X obj 159 159 *~ 0.2;
#X connect 0 0 1 0;
#X connect 1 0 3 0;
#X connect 3 0 2 0;
#X restore 264 81 pd child;
#X obj 224 177 +~;
#X floatatom 264 38 5 0 600 0 freq2 - - 0;
#X connect 0 0 2 0;
#X connect 1 0 0 0;
#X connect 2 0 5 0;
#X connect 4 0 5 1;
#X connect 5 0 3 0;
#X connect 5 0 3 1;
#X connect 6 0 4 0;
